<!-- Workaround for a jquery error. (When placing svg html on line 38, it throws an error)

Uncaught TypeError: Cannot set properties of null (setting 'innerHTML')
    at HTMLDocument.eval (eval at <anonymous> (jquery-1.10.2.js:612:22), <anonymous>:71:28)
    at fire (jquery-1.10.2.js:3048:30)
    at Object.add [as done] (jquery-1.10.2.js:3094:7)
    at init.ready (jquery-1.10.2.js:271:26)
    at eval (eval at <anonymous> (jquery-1.10.2.js:612:22), <anonymous>:63:13)
    at eval (<anonymous>)
    at jquery-1.10.2.js:612:22
    at Function.globalEval (jquery-1.10.2.js:613:7)
    at text script (jquery-1.10.2.js:8451:11)
    at ajaxConvert (jquery-1.10.2.js:8426:18)
 -->
<svg class="icon i-w" style="fill: white;" xmlns="http://www.w3.org/2000/svg" viewBox="0 0 640 512"><path d="M36.8 192H603.2c20.3 0 36.8-16.5 36.8-36.8c0-7.3-2.2-14.4-6.2-20.4L558.2 21.4C549.3 8 534.4 0 518.3 0H121.7c-16 0-31 8-39.9 21.4L6.2 134.7c-4 6.1-6.2 13.2-6.2 20.4C0 175.5 16.5 192 36.8 192zM64 224V384v80c0 26.5 21.5 48 48 48H336c26.5 0 48-21.5 48-48V384 224H320V384H128V224H64zm448 0V480c0 17.7 14.3 32 32 32s32-14.3 32-32V224H512z"/></svg>